<svg width="97" height="90" viewBox="0 0 97 90" fill="none" xmlns="http://www.w3.org/2000/svg">
<path d="M43 30H54V40H43V30Z" fill="#3A111A"/>
<path d="M32 40H43V50H32V40Z" fill="#3A111A"/>
<path d="M54 40H65V50H54V40Z" fill="#3A111A"/>
<path d="M43 50H54V60H43V50Z" fill="#3A111A"/>
<path d="M43 60H54V70H43V60Z" fill="#3A111A"/>
<path d="M65 40H76V50H65V40Z" fill="#3A111A"/>
<path d="M43 20H54V30H43V20Z" fill="#3A111A"/>
<path d="M21 40H32V50H21V40Z" fill="#3A111A"/>
<path d="M43 80H54V90H43V80Z" fill="#3A111A"/>
<path d="M43 0H54V10H43V0Z" fill="#3A111A"/>
<path d="M86 40H97V50H86V40Z" fill="#3A111A"/>
<path d="M0 40H11V50H0V40Z" fill="#3A111A"/>
</svg>
